<svg width="1522" height="521" viewBox="0 0 1522 521" fill="none" xmlns="http://www.w3.org/2000/svg">
<path d="M99 18C35.4302 6.17301 15.8333 7.16671 1 4.50004V535.501L1525.5 527.501L1529.5 148C1523.67 145.667 1508.1 147.2 1494.5 148C1477.5 149 1447 155.5 1440 155.5C1433 155.5 1435.5 137.5 1433.5 126C1431.9 116.8 1399 103 1386 59.9999C1377.69 32.4999 1357 8.50009 1327.5 16.4997C1307.23 21.9959 1210.5 -8.5001 1190 2.49948C1148.65 24.6886 1002 -7.49986 933.5 8.50004C902.687 15.6972 837 20.5001 822.5 32.0001C806.071 45.03 637 101.5 640.5 84.5C644 67.5 561 56.5001 536 49.0001C511 41.5001 500.5 58.0001 478.5 62.0001C456.5 66.0001 373 51.0001 359.5 40.5001C346 30.0001 282.5 15.5001 252 27.0001C221.5 38.5001 183 18 162 18C141 18 120.5 22.0001 99 18Z" fill="url(#paint0_linear_71_21)" fill-opacity="0.2"/>
<path d="M-1.5 304C6.5 309.833 29.4 322.3 57 325.5C91.5 329.5 147.5 365.5 174.5 352.5C201.5 339.5 288.5 376 305 381.5C321.5 387 423 408 437.5 402C452 396 471 480 485 477.5C499 475 533.5 445 568 446C575 445.5 580.4 449.2 588 446C595.6 442.8 598.5 441 599 440.5" stroke="url(#paint1_linear_71_21)" stroke-opacity="0.7" stroke-width="5"/>
<path d="M-4 4.5C14.8333 1.83333 58.2 -0.0999985 61 21.5C64.5 48.5 114.5 53 151.5 43C188.5 33 278.5 64.5 311.5 43C344.5 21.5 419 68.5 452 63.5C485 58.5 548 63.5 592.5 63.5C637 63.5 649.5 90 651 121C652.5 152 661.5 220 684.5 232.5C707.5 245 719 308 749.5 306.5C780 305 835 337 867 297.5C899 258 905.5 252.5 965.5 247.5C1025.5 242.5 1126.5 260.5 1148 283.5C1169.5 306.5 1228 341 1261.5 332C1295 323 1308 370 1352.5 351C1397 332 1411.5 329.5 1462.5 306.5C1503.3 288.1 1524.5 298.833 1530 306.5" stroke="url(#paint2_linear_71_21)" stroke-opacity="0.7" stroke-width="5"/>
<path d="M1 160.5C20 174.5 10 200.5 20 221C30 241.5 36.5 248 35 282C33.5 316 20 328.5 20 352.5C20 376.5 37.5 414 49 420.5C60.5 427 231.5 421.5 292.5 442C353.5 462.5 484.5 508 511 523C532.2 535 558.833 549 569.5 554.5" stroke="url(#paint3_linear_71_21)" stroke-opacity="0.7" stroke-width="5"/>
<path d="M1 423.5C52.5 367.5 56.5 403.5 75.5 359C94.5 314.5 73 279.5 94.5 279.5C116 279.5 137 285 136 298C135.2 308.4 129 335.333 126 347.5" stroke="url(#paint4_linear_71_21)" stroke-opacity="0.7" stroke-width="5"/>
<path d="M133.5 321C146 324.334 176.1 326.2 196.5 307C222 283 270 257 282.5 255.5C295 254 362 285.5 388.5 264C415 242.5 453 232.5 467 232.5C481 232.5 495.5 204 511 205C526.5 206 554.5 224.5 560.5 240C566.5 255.5 545.5 293 553 307C560.5 321 569 323.5 585.5 347.5C598.7 366.7 611.5 401.167 617.5 417.5" stroke="url(#paint5_linear_71_21)" stroke-opacity="0.7" stroke-width="5"/>
<path d="M558.5 262C599 222.5 607.5 202.5 635 193.5C657 186.3 662.5 190.5 662.5 193.5" stroke="url(#paint6_linear_71_21)" stroke-opacity="0.7" stroke-width="5"/>
<path d="M647.5 433.5C666.167 429.667 705.8 419.8 715 411C726.5 400 760.5 382.5 769 363C775.8 347.4 779.167 322.833 780 312.5" stroke="url(#paint7_linear_71_21)" stroke-opacity="0.7" stroke-width="5"/>
<path d="M639 447.5C650.667 449.333 678.1 459.4 682.5 473C688 490 711.5 527.5 734 527.5C756.5 527.5 765 529 780.5 537.5C792.9 544.3 796 554.333 796 558.5M673 407.5C680.333 407 696.7 403.1 703.5 391.5C712 377 730.5 387 740 375.5C749.5 364 762 353 764.5 340.5C766.5 330.5 768.667 316 769.5 310" stroke="url(#paint8_linear_71_21)" stroke-opacity="0.7" stroke-width="5"/>
<path d="M475 467.5C488 438 479.5 445 498.5 429C517.5 413 516.5 393 512.5 386C508.5 379 510 374 518.5 372C527 370 549 372 553.5 372C558 372 573 367.5 574.5 372C576 376.5 574 399 580 397C586 395 592.5 373.5 614 359.5C635.5 345.5 648.5 312 654.5 322.5C660.5 333 670.5 386.5 672.5 401C674.5 415.5 674 438.5 690 440C706 441.5 718 436 724 440C730 444 755 433.5 766 440C777 446.5 775.5 433.5 787.5 440C799.5 446.5 817 441.5 815 456C813 470.5 796.5 487.5 799.5 504C801.9 517.2 792.5 544.834 787.5 557" stroke="url(#paint9_linear_71_21)" stroke-opacity="0.7" stroke-width="5"/>
<path d="M960.709 558C971.189 550.423 965.2 530.534 965.2 523.904C965.2 517.275 972.686 503.542 985.162 503.542C997.637 503.542 1015.6 513.013 1024.59 513.013C1033.57 513.013 1051.03 475.602 1044.05 469.92C1037.06 464.237 1046.54 444.822 1044.05 423.038C1041.55 401.255 1014.11 427.3 993.645 423.038C973.185 418.776 994.643 387.996 993.645 364.792C992.647 341.588 979.672 329.276 972.686 324.067C965.699 318.858 960.709 300.389 965.2 280.974C969.691 261.558 944.241 233.145 972.686 217.044C971.521 216.729 974.083 214.108 993.645 206.153C1018.1 196.208 1018.1 232.198 1050.54 236.46C1082.97 240.722 1096.45 253.508 1113.91 226.042C1131.38 198.576 1143.36 199.049 1161.32 186.264C1179.29 173.478 1200.25 162.113 1189.27 128.491C1178.29 94.8686 1144.36 100.078 1161.32 68.8234C1178.29 37.5691 1176.29 44.1988 1189.27 32.3601C1199.65 22.8891 1193.59 8.84044 1189.27 3" stroke="url(#paint10_linear_71_21)" stroke-opacity="0.7" stroke-width="5"/>
<path d="M1320.18 17C1334.77 17.9447 1366.14 23.8965 1374.9 40.1459C1385.84 60.4577 1397.78 91.6339 1408.72 101.554C1419.67 111.473 1435.09 110.528 1433.1 132.73C1431.11 154.931 1428.12 195.082 1444.54 211.615C1460.95 228.148 1464.44 263.103 1459.96 291.445C1455.48 319.787 1431.61 335.847 1408.72 373.164C1385.84 410.481 1351.52 442.602 1355 458.19C1358.48 473.778 1335.1 517.236 1327.64 532.824C1321.67 545.294 1311.23 558.804 1306.75 564" stroke="url(#paint11_linear_71_21)" stroke-opacity="0.7" stroke-width="5"/>
<path d="M1194 149.5C1178.17 163.833 1134.9 196.6 1132.5 217C1129.5 242.5 1100.5 273.5 1097.5 294C1094.5 314.5 1099.5 349 1103.5 353C1107.5 357 1148 367 1149 392C1150 417 1120.5 442.5 1112 459C1103.5 475.5 1107.5 495.5 1120 500.5C1132.5 505.5 1159.5 508.5 1160.5 527C1161.5 545.5 1173.5 536.5 1183 536.5C1190.6 536.5 1199.83 554.833 1203.5 564" stroke="url(#paint12_linear_71_21)" stroke-opacity="0.7" stroke-width="5"/>
<path d="M823.73 329C820.727 319.706 816.522 293.273 823.73 261.895C832.739 222.671 869.278 240.629 869.278 228.814C869.278 217 854.762 187.7 860.268 171.16C865.774 154.62 873.282 122.485 869.278 105.945C865.273 89.4051 860.268 69.0844 880.79 56.3249C897.207 46.1174 917.995 18.9916 926.337 6.7047C959.372 5.91708 1028.74 4.15281 1041.96 3.39669C1055.17 2.64057 1066.82 5.28698 1070.99 6.7047C1094.01 11.2729 1142.26 19.9368 1151.07 18.0465C1159.88 16.1562 1180.44 7.49234 1189.61 3.39669C1204.13 2.29403 1240.57 2.82963 1270.2 13.7933C1299.83 24.7571 1309.74 15.6836 1320.75 16.6287" stroke="url(#paint13_linear_71_21)" stroke-opacity="0.7" stroke-width="5"/>
<path d="M779 330.5C796 331 822.5 344 832 341C841.5 338 854.5 338 860 323C864.4 311 873.167 293 877 285.5" stroke="url(#paint14_linear_71_21)" stroke-opacity="0.7" stroke-width="5"/>
<path d="M822.5 343C816 361.5 820 379 828.5 387C837 395 858 422.5 860 433C862 443.5 859.5 451.5 883.5 446.5C907.5 441.5 938 461.5 959.5 454C981 446.5 1010 454.5 1022 459.5C1031.6 463.5 1041 468.5 1044.5 470.5" stroke="url(#paint15_linear_71_21)" stroke-opacity="0.7" stroke-width="5"/>
<path d="M903.5 447.5C904 454.5 883.5 475 883.5 485.5C883.5 496 898.5 496 898.5 501.5C898.5 507 873 500.5 872.5 511C872.1 519.4 879.667 544.167 883.5 555.5" stroke="url(#paint16_linear_71_21)" stroke-opacity="0.7" stroke-width="5"/>
<path d="M599.5 453C595.5 448.5 598.358 443.747 601 434.5C603 427.5 605.5 417.4 609.5 417C614.5 416.5 646.5 421 646.5 427.5C646.5 438 644 434 641 434.5C638 435 642 456 634 460C626 464 603.5 457.5 599.5 453Z" stroke="url(#paint17_linear_71_21)" stroke-opacity="0.7" stroke-width="5"/>
<path d="M449.5 410C481.5 349 475 358.5 480.5 331.5C486 304.5 500 331.5 505.5 331.5C511 331.5 523 301 538 286C550 274 558.333 262.667 561 258.5" stroke="url(#paint18_linear_71_21)" stroke-opacity="0.7" stroke-width="5"/>
<path d="M-0.5 133C18 113.5 30.5 126.5 52 113.5C73.5 100.5 71.5 91 67 62C62.5 33 56 12 67 12.5C78 13 139 28.5 153.5 18.5C168 8.5 203 39.5 224.5 31C246 22.5 328.5 17.5 336 31C343.5 44.5 368 62 397.5 62C427 62 486.5 65.5 508 51.5C529.5 37.5 560 62.5 591 74C622 85.5 639.5 91.5 640 121.5C640.5 151.5 637.5 172.5 646.5 184C655.5 195.5 727 262 727 274.5C727 287 724 312.5 731 316.5C738 320.5 816 324.5 830.5 329.5C842.1 333.5 862 308.167 870.5 295" stroke="url(#paint19_linear_71_21)" stroke-opacity="0.7" stroke-width="5"/>
<path d="M635.75 106.114C639.085 99.6362 657.262 83.7421 703.288 71.9874C760.82 57.294 795.84 57.7679 811.349 38.3347C826.857 18.9015 907.402 24.1153 925.413 8M649.758 93.3279C666.1 106.757 712.593 142.8 735.806 128.391C764.822 110.38 843.367 128.391 858.875 133.605C874.384 138.819 910.904 169.627 936.419 151.616C961.933 133.605 1013.46 129.813 1035.47 113.224C1057.49 96.6343 1088.5 89.0506 1105.01 90.9466C1121.52 92.8425 1130.53 151.142 1170.55 159.674C1210.57 168.205 1245.59 144.506 1276.61 159.674C1307.63 174.841 1316.13 201.858 1358.66 176.737C1401.18 151.616 1449.21 157.778 1469.72 151.616C1486.13 146.687 1514.58 149.562 1526.75 151.616" stroke="url(#paint20_linear_71_21)" stroke-opacity="0.7" stroke-width="5"/>
<path d="M1069.58 6C1075.59 15.13 1089.81 37.4514 1098.62 53.6966C1109.64 74.003 1087.61 82.0312 1087.61 106.116C1087.61 130.2 1109.64 133.978 1098.62 152.868C1087.61 171.757 1074.09 214.732 1074.09 227.482C1074.09 240.233 1046.55 256.289 1055.56 265.734C1064.58 275.179 1087.61 276.595 1098.62 294.541C1109.64 312.486 1107.14 327.598 1127.17 331.848C1147.19 336.098 1155.21 331.848 1195.76 331.848C1236.32 331.848 1243.83 346.96 1272.38 339.404C1300.92 331.848 1305.42 341.765 1317.44 347.432C1329.46 353.099 1363.51 374.35 1393.55 367.738C1423.59 361.127 1445.12 351.682 1459.65 343.654C1474.17 335.626 1490.19 339.876 1502.21 343.654C1511.82 346.676 1525.91 339.561 1531.75 335.626" stroke="url(#paint21_linear_71_21)" stroke-opacity="0.7" stroke-width="5"/>
<defs>
<linearGradient id="paint0_linear_71_21" x1="765.25" y1="0.0869141" x2="765.25" y2="535.501" gradientUnits="userSpaceOnUse">
<stop stop-color="#FF7DEE"/>
<stop offset="1" stop-color="white"/>
</linearGradient>
<linearGradient id="paint1_linear_71_21" x1="298.75" y1="304" x2="298.75" y2="477.555" gradientUnits="userSpaceOnUse">
<stop stop-color="#85B8FF"/>
<stop offset="1" stop-color="#F7A4EB"/>
</linearGradient>
<linearGradient id="paint2_linear_71_21" x1="763" y1="2.91064" x2="763" y2="355.567" gradientUnits="userSpaceOnUse">
<stop stop-color="#85B8FF"/>
<stop offset="1" stop-color="#F7A4EB"/>
</linearGradient>
<linearGradient id="paint3_linear_71_21" x1="285.25" y1="160.5" x2="285.25" y2="554.5" gradientUnits="userSpaceOnUse">
<stop stop-color="#85B8FF"/>
<stop offset="1" stop-color="#F7A4EB"/>
</linearGradient>
<linearGradient id="paint4_linear_71_21" x1="68.5172" y1="279.5" x2="68.5172" y2="423.5" gradientUnits="userSpaceOnUse">
<stop stop-color="#85B8FF"/>
<stop offset="1" stop-color="#F7A4EB"/>
</linearGradient>
<linearGradient id="paint5_linear_71_21" x1="375.5" y1="204.975" x2="375.5" y2="417.5" gradientUnits="userSpaceOnUse">
<stop stop-color="#85B8FF"/>
<stop offset="1" stop-color="#F7A4EB"/>
</linearGradient>
<linearGradient id="paint6_linear_71_21" x1="610.5" y1="189.524" x2="610.5" y2="262" gradientUnits="userSpaceOnUse">
<stop stop-color="#85B8FF"/>
<stop offset="1" stop-color="#F7A4EB"/>
</linearGradient>
<linearGradient id="paint7_linear_71_21" x1="713.75" y1="312.5" x2="713.75" y2="433.5" gradientUnits="userSpaceOnUse">
<stop stop-color="#85B8FF"/>
<stop offset="1" stop-color="#F7A4EB"/>
</linearGradient>
<linearGradient id="paint8_linear_71_21" x1="717.5" y1="310" x2="717.5" y2="558.5" gradientUnits="userSpaceOnUse">
<stop stop-color="#85B8FF"/>
<stop offset="1" stop-color="#F7A4EB"/>
</linearGradient>
<linearGradient id="paint9_linear_71_21" x1="645.079" y1="320.496" x2="645.079" y2="557" gradientUnits="userSpaceOnUse">
<stop stop-color="#85B8FF"/>
<stop offset="1" stop-color="#F7A4EB"/>
</linearGradient>
<linearGradient id="paint10_linear_71_21" x1="1077" y1="3" x2="1077" y2="558" gradientUnits="userSpaceOnUse">
<stop stop-color="#85B8FF"/>
<stop offset="1" stop-color="#F7A4EB"/>
</linearGradient>
<linearGradient id="paint11_linear_71_21" x1="1384.25" y1="17" x2="1384.25" y2="564" gradientUnits="userSpaceOnUse">
<stop stop-color="#85B8FF"/>
<stop offset="1" stop-color="#F7A4EB"/>
</linearGradient>
<linearGradient id="paint12_linear_71_21" x1="1150.04" y1="148.5" x2="1150.04" y2="564" gradientUnits="userSpaceOnUse">
<stop stop-color="#85B8FF"/>
<stop offset="1" stop-color="#FFC0F7"/>
</linearGradient>
<linearGradient id="paint13_linear_71_21" x1="1070.25" y1="3" x2="1070.25" y2="329" gradientUnits="userSpaceOnUse">
<stop stop-color="#85B8FF"/>
<stop offset="1" stop-color="#F7A4EB"/>
</linearGradient>
<linearGradient id="paint14_linear_71_21" x1="828" y1="285.5" x2="828" y2="341.449" gradientUnits="userSpaceOnUse">
<stop stop-color="#85B8FF"/>
<stop offset="1" stop-color="#F7A4EB"/>
</linearGradient>
<linearGradient id="paint15_linear_71_21" x1="931.888" y1="343" x2="931.888" y2="470.5" gradientUnits="userSpaceOnUse">
<stop stop-color="#85B8FF"/>
<stop offset="1" stop-color="#F7A4EB"/>
</linearGradient>
<linearGradient id="paint16_linear_71_21" x1="887.997" y1="447.5" x2="887.997" y2="555.5" gradientUnits="userSpaceOnUse">
<stop stop-color="#85B8FF"/>
<stop offset="1" stop-color="#F7A4EB"/>
</linearGradient>
<linearGradient id="paint17_linear_71_21" x1="622.008" y1="416.962" x2="622.008" y2="461.248" gradientUnits="userSpaceOnUse">
<stop stop-color="#85B8FF"/>
<stop offset="1" stop-color="#F7A4EB"/>
</linearGradient>
<linearGradient id="paint18_linear_71_21" x1="505.25" y1="258.5" x2="505.25" y2="410" gradientUnits="userSpaceOnUse">
<stop stop-color="#85B8FF"/>
<stop offset="1" stop-color="#F7A4EB"/>
</linearGradient>
<linearGradient id="paint19_linear_71_21" x1="435" y1="12.4912" x2="435" y2="329.923" gradientUnits="userSpaceOnUse">
<stop stop-color="#85B8FF"/>
<stop offset="1" stop-color="#F7A4EB"/>
</linearGradient>
<linearGradient id="paint20_linear_71_21" x1="1081.25" y1="8" x2="1081.25" y2="187" gradientUnits="userSpaceOnUse">
<stop stop-color="#85B8FF"/>
<stop offset="1" stop-color="#FFC0F7"/>
</linearGradient>
<linearGradient id="paint21_linear_71_21" x1="1292.75" y1="6" x2="1292.75" y2="369" gradientUnits="userSpaceOnUse">
<stop stop-color="#85B8FF"/>
<stop offset="1" stop-color="#F7A4EB"/>
</linearGradient>
</defs>
</svg>
