<svg width="1522" height="341" viewBox="0 0 1522 341" fill="none" xmlns="http://www.w3.org/2000/svg">
<path d="M1703 290.067C1608.39 291.864 1513.78 293.66 1419.17 305.538C1324.56 317.415 1229.94 339.372 1135.33 340.346C1040.72 341.319 946.111 321.307 851.5 317.14C756.889 312.973 662.278 324.647 567.667 324.875C473.056 325.104 378.444 313.892 283.833 301.67C189.222 289.448 94.611 276.223 -6.78004e-05 262.995L-9.0792e-05 0.0011442C94.611 0.00113593 189.222 0.00112766 283.833 0.00111938C378.444 0.00111111 473.055 0.00110284 567.667 0.00109457C662.278 0.0010863 756.889 0.00107803 851.5 0.00106976C946.111 0.00106149 1040.72 0.00105322 1135.33 0.00104494C1229.94 0.00103667 1324.56 0.0010284 1419.17 0.00102013C1513.78 0.00101186 1608.39 0.00100359 1703 0.000995317L1703 290.067Z" fill="#A154F2" fill-opacity="0.19"/>
<path d="M1703 274.597C1612.55 314.603 1513.78 313.339 1419.17 297.802C1324.56 282.266 1229.94 253.093 1135.33 239.789C1040.72 226.486 946.111 229.047 851.5 235.922C756.889 242.796 662.278 253.987 567.667 274.597C473.056 295.207 378.444 325.237 283.833 321.008C189.222 316.778 94.6112 278.282 5.23499e-05 239.789L3.13869e-05 0.000969596C94.6111 0.000961325 189.222 0.000953054 283.833 0.000944783C378.444 0.000936512 473.056 0.00092824 567.667 0.000919969C662.278 0.000911698 756.889 0.000903427 851.5 0.000895156C946.111 0.000886885 1040.72 0.000878613 1135.33 0.000870342C1229.94 0.000862071 1324.56 0.0008538 1419.17 0.000845529C1513.78 0.000837258 1608.39 0.000828986 1703 0.000820715L1703 274.597Z" fill="#A154F2" fill-opacity="0.19"/>
<path d="M1703 224.319C1608.39 239.59 1513.78 254.86 1419.17 266.862C1324.56 278.864 1229.94 287.601 1135.33 282.332C1040.72 277.063 946.111 257.796 851.5 239.789C756.889 221.782 662.278 205.044 567.667 208.849C473.056 212.654 378.444 237.011 283.833 247.524C189.222 258.038 94.6111 254.715 -6.38771e-05 251.392L-8.58543e-05 0.00109704C94.611 0.00108877 189.222 0.0010805 283.833 0.00107222C378.444 0.00106395 473.055 0.00105568 567.667 0.00104741C662.278 0.00103914 756.889 0.00103087 851.5 0.0010226C946.111 0.00101433 1040.72 0.00100606 1135.33 0.000997784C1229.94 0.000989513 1324.56 0.000981242 1419.17 0.00097297C1513.78 0.000964699 1608.39 0.000956428 1703 0.000948157L1703 224.319Z" fill="#A154F2" fill-opacity="0.19"/>
<path d="M1703 197.245C1608.39 209.18 1513.78 221.12 1419.17 224.318C1324.56 227.516 1229.94 221.981 1135.33 232.053C1040.72 242.125 946.111 267.805 851.5 259.126C756.889 250.447 662.278 207.404 567.667 201.112C473.056 194.82 378.444 225.283 283.833 239.788C189.222 254.293 94.6111 252.842 -6.18654e-05 251.391L-8.38427e-05 -0.00020767C94.611 -0.000215941 189.222 -0.000224212 283.833 -0.000232484C378.444 -0.000240755 473.055 -0.000249026 567.667 -0.000257297C662.278 -0.000265568 756.889 -0.000273839 851.5 -0.000282111C946.111 -0.000290382 1040.72 -0.000298653 1135.33 -0.000306924C1229.94 -0.000315195 1324.56 -0.000323466 1419.17 -0.000331738C1513.78 -0.000340009 1608.39 -0.00034828 1703 -0.000356551L1703 197.245Z" fill="#A154F2" fill-opacity="0.19"/>
<path d="M1703 208.85C1608.39 185.258 1513.78 161.662 1419.17 166.307C1324.56 170.952 1229.94 203.835 1135.33 208.85C1040.72 213.865 946.111 191.018 851.5 193.38C756.889 195.742 662.278 223.322 567.667 220.453C473.056 217.583 378.444 184.272 283.833 181.777C189.222 179.282 94.6111 207.603 -6.10352e-05 235.923L-8.166e-05 0.00235949C94.611 0.00235122 189.222 0.00234295 283.833 0.00233468C378.444 0.0023264 473.055 0.00231813 567.667 0.00230986C662.278 0.00230159 756.889 0.00229332 851.5 0.00228505C946.111 0.00227678 1040.72 0.00226851 1135.33 0.00226024C1229.94 0.00225196 1324.56 0.00224369 1419.17 0.00223542C1513.78 0.00222715 1608.39 0.00221888 1703 0.00221061L1703 208.85Z" fill="#A154F2" fill-opacity="0.19"/>
<path d="M1703 181.776C1608.39 204.021 1513.78 226.265 1419.17 228.187C1324.56 230.108 1229.94 211.702 1135.33 193.379C1040.72 175.056 946.111 156.808 851.5 162.438C756.889 168.069 662.278 197.571 567.667 197.246C473.056 196.922 378.444 166.764 283.833 162.439C189.222 158.114 94.611 179.614 -6.3414e-05 201.114L-8.09959e-05 0.00135321C94.611 0.00134494 189.222 0.00133667 283.833 0.00132839C378.444 0.00132012 473.055 0.00131185 567.667 0.00130358C662.278 0.00129531 756.889 0.00128704 851.5 0.00127877C946.111 0.0012705 1040.72 0.00126222 1135.33 0.00125395C1229.94 0.00124568 1324.56 0.00123741 1419.17 0.00122914C1513.78 0.00122087 1608.39 0.0012126 1703 0.00120433L1703 181.776Z" fill="#A154F2" fill-opacity="0.19"/>
<path d="M1703 174.041C1608.39 182.35 1513.78 190.659 1419.17 185.643C1324.56 180.628 1229.94 162.292 1135.33 166.306C1040.72 170.319 946.111 196.689 851.5 193.378C756.889 190.068 662.278 157.086 567.667 139.233C473.056 121.38 378.444 118.664 283.833 123.763C189.222 128.861 94.611 141.782 -6.44413e-05 154.703L-7.79658e-05 0.000926791C94.611 0.00091852 189.222 0.000910249 283.833 0.000901978C378.444 0.000893706 473.055 0.000885435 567.667 0.000877164C662.278 0.000868893 756.889 0.000860622 851.5 0.000852351C946.111 0.000844079 1040.72 0.000835808 1135.33 0.000827537C1229.94 0.000819266 1324.56 0.000810995 1419.17 0.000802724C1513.78 0.000794452 1608.39 0.000786181 1703 0.00077791L1703 174.041Z" fill="#A154F2" fill-opacity="0.19"/>
<path d="M1703 181.776C1608.39 174.657 1513.78 167.537 1419.17 150.836C1324.56 134.135 1229.94 107.856 1135.33 116.028C1040.72 124.2 946.111 166.822 851.5 170.174C756.889 173.526 662.278 137.607 567.667 119.896C473.056 102.184 378.444 102.679 283.833 104.425C189.222 106.172 94.611 109.166 -6.71212e-05 112.161L-7.69264e-05 0.00157749C94.611 0.00156922 189.222 0.00156094 283.833 0.00155267C378.444 0.0015444 473.055 0.00153613 567.667 0.00152786C662.278 0.00151959 756.889 0.00151132 851.5 0.00150305C946.111 0.00149478 1040.72 0.0014865 1135.33 0.00147823C1229.94 0.00146996 1324.56 0.00146169 1419.17 0.00145342C1513.78 0.00144515 1608.39 0.00143688 1703 0.00142861L1703 181.776Z" fill="#A154F2" fill-opacity="0.19"/>
<path d="M1703 69.6171C1608.39 64.6226 1513.78 59.6322 1419.17 69.6171C1324.56 79.6021 1229.94 104.571 1135.33 108.293C1040.72 112.015 946.111 94.4984 851.5 92.8225C756.889 91.1466 662.278 105.311 567.667 116.028C473.056 126.745 378.444 134.006 283.833 127.63C189.222 121.255 94.6111 101.236 -6.53011e-05 81.2199L-7.24015e-05 0.00131485C94.611 0.00130657 189.222 0.0012983 283.833 0.00129003C378.444 0.00128176 473.056 0.00127349 567.667 0.00126522C662.278 0.00125695 756.889 0.00124868 851.5 0.00124041C946.111 0.00123213 1040.72 0.00122386 1135.33 0.00121559C1229.94 0.00120732 1324.56 0.00119905 1419.17 0.00119078C1513.78 0.00118251 1608.39 0.00117424 1703 0.00116597L1703 69.6171Z" fill="#A154F2" fill-opacity="0.19"/>
<path d="M1703 119.896C1608.39 116.614 1513.78 113.337 1419.17 104.425C1324.56 95.5133 1229.94 80.9705 1135.33 73.4849C1040.72 65.9993 946.111 65.5793 851.5 61.8823C756.889 58.1852 662.278 51.2195 567.667 46.4121C473.056 41.6047 378.444 38.9598 283.833 50.2797C189.222 61.5995 94.6111 86.8801 -6.17114e-05 112.161L-7.15166e-05 0.00153814C94.611 0.00152987 189.222 0.0015216 283.833 0.00151333C378.444 0.00150506 473.056 0.00149679 567.667 0.00148851C662.278 0.00148024 756.889 0.00147197 851.5 0.0014637C946.111 0.00145543 1040.72 0.00144716 1135.33 0.00143889C1229.94 0.00143062 1324.56 0.00142235 1419.17 0.00141407C1513.78 0.0014058 1608.39 0.00139753 1703 0.00138926L1703 119.896Z" fill="#A154F2" fill-opacity="0.19"/>
</svg>
